<svg preserveAspectRatio="xMidYMid meet" width="100%" height="100%" overflow="visible" style="display: block;" viewBox="0 0 766.37 780.302" fill="none" xmlns="http://www.w3.org/2000/svg">
<path id="Vector 52 (Stroke)" d="M632.451 0C673.961 8.98023e-05 711.371 30.5352 735.826 79.0674C760.371 127.778 772.514 195.619 763.282 273.038C744.796 428.077 640.63 621.78 377.723 779.518C376.009 780.546 373.873 780.564 372.143 779.564C98.8922 621.803 4.85844 427.913 0.184757 272.552C-2.14776 195.012 17.8046 127.185 48.7521 78.5879C79.5784 30.1814 121.962 0.000165265 164.69 0C230.583 0 284.927 29.6968 325.904 66.415C355.246 92.7065 377.916 122.752 393.296 148.531C397.515 155.601 408.265 155.52 412.37 148.383C427.166 122.659 448.938 92.7095 477.1 66.4863C516.539 29.7612 568.905 0 632.451 0ZM632.451 11C572.546 11 522.73 39.0264 484.596 74.5361C446.432 110.074 420.362 152.761 408.112 181.049C406.214 185.434 400.011 185.479 398.05 181.121C385.327 152.848 358.238 110.158 318.564 74.6074C278.927 39.091 227.085 11 164.69 11C127.237 11.0002 87.8138 37.7272 58.0305 84.4961C28.3685 131.074 8.90772 196.691 11.1799 272.222C15.671 421.511 105.17 609.994 369.67 765.393C372.818 767.243 376.833 767.214 379.95 765.312C634.63 609.911 734.526 421.303 752.36 271.735C761.38 196.084 749.417 130.482 726.003 84.0166C702.5 37.3733 668.099 11.0001 632.451 11Z" fill="var(--fill-0, #DF6CEB)"/>
</svg>
