<?xml version="1.0" encoding="UTF-8"?>
<svg id="Calque_2" data-name="Calque 2" xmlns="http://www.w3.org/2000/svg" viewBox="0 0 779.14 1044.05">
  <defs>
    <style>
      .cls-1 {
        fill: #5bb946;
      }

      .cls-2 {
        fill: #fff;
      }

      .cls-3 {
        fill: none;
      }

      .cls-4 {
        fill: #359639;
      }

      .cls-5 {
        fill: #374282;
      }
    </style>
  </defs>
  <g id="Calque_1-2" data-name="Calque 1">
    <g>
      <path class="cls-5" d="M173.85,295.33c.12-2.11,6.49-13.44.03-14.85-15.05,33.84-11.68,64.08-.05,98.32-9.56-9.32-19.39-23.19-21.81-36.48-10.44-57.38,23.48-79.12,37.87-126.99,9.77-32.48,9.67-67.18,20.51-100.69C240.16,22.62,342.07-32.62,429.78,21.11c4.41,2.7,13.08,11.21,15.52,11.93,9.36,2.74,23.5.84,36.26,4.91,72.12,23.02,84.72,135.62,108.47,197.97,15.6,40.95,52.68,95.04,29.41,139.09-1.68,3.17-16.73,22.99-20.22,19.78,15.16-16.72,18.16-40.61,12.67-61.81l-5.79-18.19c1.83,77.23-64.85,118.22-131.77,134.82l-1.91,11.61c21.36,9.69,47.65,3,63.94,25.06l4.53-15.98,8.04,22.85c1.58,1.21,12.43-9.33,15.84-10.41,13.1-4.14,54.37,8.63,68.71,13.88,47.8,17.5,83.72,48.59,102.4,96.55,4.36,11.2,15.87,46.26,15.42,56.68-.61,14.1-20.53,18.01-30.86,22.79,17.98,55.36,36.1,111.29,49.17,168.08,8.09,35.17,21.91,74.78-13.76,100.64-46.5,33.71-154.02,5.99-198.97-24.75-26.21,27.62-53.35,51.41-85.93,71.45-16.64,10.23-63.53,36.2-81.31,37.21-17.44.99-73.35-30.98-89.82-41.79-28.48-18.69-50.91-40.96-74.99-64.68-4.05-1.04-42.52,18.42-51.07,21.33-45.22,15.38-158.95,36.3-172.69-30.65-6.46-31.47,18.14-114.36,27.54-148.81,7.89-28.92,18.75-57.9,26.17-86.65-9.7-4.13-28.65-9.57-29.47-22.06-.85-12.9,22.33-70.98,30.09-84.06,21.04-35.46,65.17-59.65,103.52-72.56,19.11-6.43,53.45-20.26,66.4.04l12.61-25.11c8.71-2.82,1.03,11.88,7.93,9.11,2.73-1.09,5.85-5.06,11.37-6.94,13.56-4.63,25.86-4.17,38.91-6.83,8.03-1.64,7.58-8.32,2.46-13.76-4.46-4.74-24.21-11.77-31.67-16.35-21.14-12.97-41.63-34.1-47.36-58.99-4.05-.57-2.23,5.13-1.73,7.45,4.03,18.64,15.65,34.84,26.91,49.69-27.29-4.73-49.81-33.72-59.87-57.88-3.86-9.26-11.02-32.4-11.02-41.58,0-12.75-.71-26.25,0-38.88ZM262.82,324.15c8.69,45.8,45,80.06,84.14,102.23,48.64,27.55,77.36,8.07,116.12-24.78,33.65-28.52,43.79-55.54,52.68-98.25,4.61-22.14,11.33-65.99,7.44-87.52-3.06-16.96-37.95-34.61-50.9-47.43-19.22-19.03-32.74-44.26-37.77-70.86l-22.91,30.79c-21.34,23.73-46.4,42.02-77.66,50.4-17.93,4.81-63.98,7.05-74.49,19.27-16.21,18.86-3.41,83.17-1.01,107.61-7.53,1.2-9.54-3.62-12.68-9.03-4.79-8.26-14.37-48.29-17.32-50.11-9.52-5.88-14.92,9.66-15.53,17.16-2.08,25.79,18.12,68.91,49.89,60.51ZM521.47,326.19c32.2,4.4,53.04-79.58,25.88-81.97l-7.01,5.97-18.87,76ZM455.11,422.25c-19.42,13.4-42.49,32.27-67.44,32.18-24.65-.09-48.2-21.48-67.44-34.47l-3.51,80.04c39.43,31.27,87.84,33.06,130.79,7.24,20.59-12.38,8.87-15.65,7.66-35.87-.97-16.28.65-32.85-.06-49.13ZM363.65,541.2c-31.23-8.97-58.82-27.21-80.09-51.57l-25.08,5.82c-2.46,2.73,18.53,22.32,21.79,25.07,16.83,14.23,37.64,25.94,59.04,31.47l24.35-10.79ZM516.88,495.46l-28.18-6.65c-19.67,25.46-48.3,42.96-79.28,51.21,15.58,12.78,26.02,11.29,43.4,4.55,24.48-9.51,46.39-30.19,64.07-49.1ZM642.65,666.94c2.59,2.61,64.16-8.12,72.69-10.79,20.33-6.36,22.14-5.19,17.65-25.81-4.02-18.47-13.63-47.7-23.05-63.83-25.47-43.6-84.52-61.85-131.3-71.09l-4.6,25.14c45.4,13.26,103.1,24.76,120.71,74.86,3.58,10.2,10.08,35.21,3.75,43.9-7.76,10.64-40.95,12.73-53.69,14.89l-2.14,12.73ZM194.44,500c-5.23-5.14-65.24,19.73-74.74,24.74-42.12,22.21-58.04,46.2-70.96,91.4-1.98,6.92-9.16,29.26-5.47,33.82,6.16,7.62,54.1,15.95,65.44,16.97l27.47.03-1.31-11.32c-10.51.17-52.09-4.96-57.23-13.09-6.41-10.14,2.54-38.98,6.99-49.97,17.04-42.18,70.66-53.55,109.49-67.74l.32-24.84ZM151.66,615c-3.54,4.11-5.44,15.5-5.45,21.09-.16,147.02,64.52,291.04,198.33,359.85,8.5,4.37,31.63,15.79,39.73,17.6,10.55,2.36,43.3-13.57,54.1-19.17,129.02-66.93,188.02-193.53,192.94-335.32.47-13.54,3.56-39.12-8.41-46.66-79.73-18.81-160.27-35.44-235.63-68.34-50.19,20.36-101.84,37.02-154.36,50.48-14.16,3.63-75.06,13.28-81.26,20.48ZM754.71,833.86l-43.73-145.04-3-2.81-21.88,3.83c15.61,40.61,26.21,83.18,35.48,125.71l33.13,18.31ZM89.24,692.13l-21.57-4.28-3.17,3.5-41.56,144.82,31.57-19.86,34.73-124.18ZM169.23,822.47c-44.94,15.07-127.24,4.83-114.29,75.46l128.04-33.19c5.12-3.37-5.07-17.5-7.25-22.46-2.76-6.29-5.73-12.88-6.51-19.81ZM722.68,895.62c8.16-67.22-63.97-59.37-108.35-73.35l-19.68,40.22,128.03,33.13ZM722.72,934.5c75.02-5.87,50.06-120.07-18.34-99.48,26.38,12.04,33.7,45.95,29.21,72.63-1.63,9.66-9.19,17.28-10.87,26.84ZM73.22,833.91c-69.38-14.22-92.62,94.08-18.28,100.58-17.18-28.86-19.92-66.63,5.73-91.43,3.82-3.69,10.56-4.73,12.55-9.14Z"/>
      <path class="cls-2" d="M642.65,666.94l2.14-12.73c12.75-2.16,45.94-4.25,53.69-14.89,6.33-8.69-.16-33.7-3.75-43.9-17.61-50.11-75.3-61.6-120.71-74.86l4.6-25.14c46.77,9.23,105.83,27.49,131.3,71.09,9.43,16.13,19.03,45.36,23.05,63.83,4.49,20.62,2.68,19.45-17.65,25.81-8.53,2.67-70.09,13.4-72.69,10.79Z"/>
      <path class="cls-2" d="M194.44,500l-.32,24.84c-38.84,14.19-92.45,25.55-109.49,67.74-4.44,10.99-13.4,39.83-6.99,49.97,5.14,8.13,46.72,13.26,57.23,13.09l1.31,11.32-27.47-.03c-11.34-1.02-59.28-9.35-65.44-16.97-3.69-4.56,3.49-26.9,5.47-33.82,12.92-45.21,28.84-69.19,70.96-91.4,9.5-5.01,69.52-29.88,74.74-24.74Z"/>
      <path class="cls-2" d="M169.23,822.47c.78,6.93,3.75,13.53,6.51,19.81,2.18,4.96,12.36,19.08,7.25,22.46l-128.04,33.19c-12.95-70.63,69.35-60.38,114.29-75.46Z"/>
      <path class="cls-2" d="M722.68,895.62l-128.03-33.13,19.68-40.22c44.38,13.98,116.5,6.13,108.35,73.35Z"/>
      <polygon class="cls-2" points="89.24 692.13 54.52 816.31 22.95 836.17 64.5 691.35 67.68 687.85 89.24 692.13"/>
      <path class="cls-2" d="M754.71,833.86l-33.13-18.31c-9.27-42.53-19.88-85.11-35.48-125.71l21.88-3.83,3,2.81,43.73,145.04Z"/>
      <path class="cls-2" d="M722.72,934.5c1.68-9.56,9.24-17.18,10.87-26.84,4.5-26.68-2.83-60.6-29.21-72.63,68.4-20.6,93.36,93.61,18.34,99.48Z"/>
      <path class="cls-2" d="M73.22,833.91c-1.99,4.41-8.73,5.45-12.55,9.14-25.66,24.8-22.91,62.58-5.73,91.43-74.33-6.49-51.1-114.79,18.28-100.58Z"/>
      <path class="cls-2" d="M363.65,541.2l-24.35,10.79c-21.4-5.53-42.21-17.24-59.04-31.47-3.25-2.75-24.24-22.35-21.79-25.07l25.08-5.82c21.27,24.36,48.86,42.6,80.09,51.57Z"/>
      <path class="cls-2" d="M516.88,495.46c-17.68,18.91-39.58,39.6-64.07,49.1-17.38,6.75-27.82,8.23-43.4-4.55,30.98-8.25,59.61-25.75,79.28-51.21l28.18,6.65Z"/>
    </g>
    <path class="cls-2" d="M151.66,615c6.2-7.2,67.09-16.85,81.26-20.48,52.52-13.46,104.17-30.12,154.36-50.48,75.35,32.9,155.9,49.53,235.63,68.34,11.97,7.54,8.88,33.12,8.41,46.66-4.92,141.78-63.93,268.38-192.94,335.32-10.8,5.6-43.55,21.53-54.1,19.17-8.09-1.81-31.22-13.22-39.73-17.6-133.81-68.81-198.49-212.83-198.33-359.85,0-5.58,1.91-16.98,5.45-21.09ZM596.79,639.62c-72.19-8.44-141.89-30.27-209.11-56.98-66.36,24.85-133.87,47.65-204.55,56.97,1.27,115.08,40.33,234.48,138.66,301.33,11.98,8.15,53.23,32,65.92,32.6,14.77.7,59.37-25.41,72.73-34.88,98.47-69.83,133.89-182.05,136.36-299.03Z"/>
    <path class="cls-4" d="M387.67,582.64l-.21,75.39c22.08.32,44.39,13.19,51.78,39.67,2.54,9.11.85,34.35,2.16,35.56.96.88,17.8-1.71,20.54,12.63,2.57,13.47,1.62,69.33.04,84.56-1.32,12.71-6.47,17.97-19.38,19.5-12.35,1.47-33.69,2.04-54.92,1.95v121.64c14.78.7,59.37-25.41,72.74-34.88,98.47-69.83,133.89-182.05,136.36-299.03-72.19-8.44-141.89-30.27-209.11-56.98Z"/>
    <path class="cls-5" d="M387.67,582.64s-.05.02-.07.03l-.14,75.36c.07,0,.14,0,.21,0"/>
    <path class="cls-1" d="M335.18,850.01c-9.79-.9-16.98-4.1-20.1-14.2-3.96-12.84-2.45-77.63.85-92.16,2.72-11.97,15.81-5.84,18.33-9.3,2.62-3.59-.73-23.39-.09-29.64,3.17-30.86,28.3-46.95,53.5-46.67l.14-75.36c-66.33,24.84-133.83,47.63-204.48,56.95,1.27,115.08,40.33,234.48,138.66,301.33,11.74,7.98,52.4,31.12,65.92,32.6v-121.64c-20.16-.1-40.72-.79-52.73-1.9Z"/>
    <path class="cls-4" d="M420.83,733.26h-66.32c-7.94-30.8,7.05-63.42,43.52-53.81,5.66,1.49,25.32,17.9,26.87,30.89l-4.07,22.91Z"/>
    <g>
      <path class="cls-2" d="M441.41,733.26c.96.88,17.8-1.71,20.54,12.63,2.57,13.47,1.62,69.33.04,84.56-1.32,12.71-6.47,17.97-19.38,19.5-24.18,2.87-82.86,2.34-107.65.05-9.79-.9-16.98-4.1-20.1-14.2-3.96-12.84-2.45-77.63.85-92.16,2.72-11.97,13-9.75,17.26-10.06,1.33-.1.33-22.63.97-28.88,5.95-57.98,89.42-63.8,105.29-7.01,2.54,9.11.85,34.35,2.16,35.56ZM420.83,733.26s9.18-53.3-31.93-54.32c-29.64-.74-42.33,23.52-34.39,54.32h66.32ZM379.66,822.46l17.3-2.15c4.2-6.76-4.64-18.17-3.72-23.07,1.15-6.09,18.26-11.09,8.08-25.05-11.07-15.18-35.16-3.03-29.87,13.76,1.5,4.75,7.12,7.06,8.17,12.54.87,4.57-.9,23.04.04,23.97Z"/>
      <path class="cls-4" d="M379.66,822.46c-.94-.93.83-19.41-.04-23.97-1.05-5.47-6.67-7.79-8.17-12.54-5.29-16.79,18.55-31.12,29.62-15.94,10.18,13.96-5.52,22.41-5.11,28.6.34,5.11,2.75,17.1,2.38,23.49l-18.69.37Z"/>
    </g>
    <path class="cls-2" d="M262.82,324.15c-31.77,8.4-51.97-34.72-49.89-60.51.6-7.5,6.01-23.05,15.53-17.16,2.95,1.82,12.53,41.86,17.32,50.11,3.13,5.4,5.14,10.23,12.68,9.03-2.4-24.44-15.2-88.75,1.01-107.61,10.5-12.22,56.56-14.46,74.49-19.27,31.26-8.39,56.32-26.67,77.66-50.4l22.91-30.79c5.03,26.61,18.56,51.84,37.77,70.86,12.95,12.82,47.84,30.47,50.9,47.43,3.89,21.53-2.83,65.38-7.44,87.52-8.9,42.71-19.04,69.73-52.68,98.25-38.76,32.85-67.48,52.33-116.12,24.78-39.14-22.17-75.44-56.44-84.14-102.23Z"/>
    <path class="cls-2" d="M455.11,422.25c.71,16.28-.91,32.85.06,49.13,1.21,20.22,12.93,23.48-7.66,35.87-42.94,25.83-91.36,24.03-130.79-7.24l3.51-80.04c19.24,12.99,42.79,34.38,67.44,34.47,24.95.09,48.02-18.78,67.44-32.18Z"/>
    <path class="cls-2" d="M521.47,326.19l18.87-76,7.01-5.97c27.16,2.39,6.32,86.36-25.88,81.97Z"/>
    <line class="cls-3" x1="387.07" y1="565.07" x2="386.09" y2="1044.05"/>
    <line class="cls-3" x1="387.12" y1="540.56" x2="387.07" y2="565.07"/>
    <path class="cls-5" d="M428.52,367.32c-18.97,23.63-55.74,22.02-77.15,3.17-.37-5.68.84-2.17,3.38-1.51,26.7,6.95,47.3,5.1,73.77-1.66Z"/>
    <path class="cls-5" d="M388.29,340.17c1.08,1.27,2,3.95,2.64,5.71-3.01,2.5-18.75-7.48-19.78-12.8,5.24-.84,13.71,3.05,17.15,7.09Z"/>
    <path class="cls-5" d="M408.72,330.93c3.79,3.93-15.13,15.89-15.8,14.97-3.52-7.32,14.18-16.65,15.8-14.97Z"/>
    <path class="cls-5" d="M354.9,264.1l-18.74-8.3c8.48,32.12-38.79,29.95-27.11-2.09-7.71,3.64-15.93,9.11-14.58,18.75-5.04,1.54-17.64-13.29-16.65-14.56,25.06-14.15,64.3-31.98,77.08,6.2Z"/>
    <path class="cls-5" d="M490.2,258.06c.05,6.51-5.13,11.17-11.2,12.44-3.82-7.06-8.07-13.41-15.74-16.8,5.84,32.28-37.13,33.62-29.19,2.1l-16.66,8.3c8.78-36.66,50.72-22.24,72.78-6.05Z"/>
    <path class="cls-5" d="M481.95,228.5c-26.22-8.53-39.92-5.95-64.73,2.16-8.27,2.7-3.53-4.67-.41-7.67,15.73-15.11,51.36-9.33,65.14,5.52Z"/>
    <path class="cls-5" d="M357.86,230.32c-25.18-7.64-47.06-10.81-72.04,0,8.09-8.65,28.44-16.66,40.94-16.37,9.81.23,28.89,5.95,31.1,16.38Z"/>
  </g>
</svg>